<?xml version="1.0" encoding="UTF-8"?>
<svg xmlns="http://www.w3.org/2000/svg" xmlns:xlink="http://www.w3.org/1999/xlink" viewBox="0 0 20 20" width="20px" height="20px">
<g id="surface80284691">
<path style=" stroke:none;fill-rule:nonzero;fill:rgb(100%,64.705884%,0.392157%);fill-opacity:1;" d="M 2.359375 17.757812 L 2.359375 2.359375 L 17.757812 2.359375 L 17.757812 17.757812 Z M 2.359375 17.757812 "/>
<path style=" stroke:none;fill-rule:nonzero;fill:rgb(0%,0%,0%);fill-opacity:1;" d="M 16.449219 0.0117188 L 3.550781 0.0117188 C 1.769531 0.0117188 0.324219 1.457031 0.324219 3.238281 L 0.324219 16.136719 C 0.324219 17.917969 1.769531 19.363281 3.550781 19.363281 L 16.449219 19.363281 C 18.230469 19.363281 19.675781 17.917969 19.675781 16.136719 L 19.675781 3.238281 C 19.675781 1.457031 18.230469 0.0117188 16.449219 0.0117188 Z M 14.160156 14.121094 C 13.671875 12.589844 12.445312 11.402344 10.824219 11.242188 L 10.824219 14.121094 L 10.574219 14.121094 C 6.167969 14.121094 3.65625 11.09375 3.550781 6.058594 L 5.757812 6.058594 C 5.832031 9.753906 7.457031 11.320312 8.746094 11.644531 L 8.746094 6.058594 L 10.824219 6.058594 L 10.824219 9.246094 C 12.097656 9.109375 13.4375 7.65625 13.886719 6.058594 L 15.964844 6.058594 C 15.621094 8.027344 14.171875 9.480469 13.136719 10.078125 C 14.167969 10.5625 15.820312 11.828125 16.449219 14.121094 Z M 14.160156 14.121094 "/>
</g>
</svg>
