<?xml version="1.0" encoding="UTF-8"?>
<svg xmlns="http://www.w3.org/2000/svg" xmlns:xlink="http://www.w3.org/1999/xlink" viewBox="0 0 30 30" width="30px" height="30px">
<g id="surface1324622">
<path style=" stroke:none;fill-rule:nonzero;fill:rgb(100%,100%,100%);fill-opacity:1;" d="M 0.0859375 30.085938 L 0.0859375 0.0859375 L 30.085938 0.0859375 L 30.085938 30.085938 Z M 0.0859375 30.085938 "/>
<path style=" stroke:none;fill-rule:nonzero;fill:rgb(0%,0%,0%);fill-opacity:1;" d="M 24.523438 0.242188 L 5.476562 0.242188 C 2.84375 0.242188 0.710938 2.375 0.710938 5.007812 L 0.710938 24.054688 C 0.710938 26.6875 2.84375 28.820312 5.476562 28.820312 L 24.523438 28.820312 C 27.15625 28.820312 29.289062 26.6875 29.289062 24.054688 L 29.289062 5.007812 C 29.289062 2.375 27.15625 0.242188 24.523438 0.242188 Z M 21.144531 21.078125 C 20.417969 18.816406 18.609375 17.0625 16.21875 16.824219 L 16.21875 21.078125 L 15.851562 21.078125 C 9.34375 21.078125 5.628906 16.609375 5.476562 9.171875 L 8.734375 9.171875 C 8.84375 14.632812 11.246094 16.945312 13.148438 17.421875 L 13.148438 9.171875 L 16.21875 9.171875 L 16.21875 13.882812 C 18.101562 13.679688 20.074219 11.535156 20.742188 9.171875 L 23.8125 9.171875 C 23.300781 12.082031 21.15625 14.226562 19.632812 15.109375 C 21.15625 15.824219 23.597656 17.695312 24.523438 21.078125 Z M 21.144531 21.078125 "/>
</g>
</svg>
