<svg width="24" height="24" viewBox="0 0 24 24" fill="none" xmlns="http://www.w3.org/2000/svg">
<path d="M2.625 6V18C2.625 19.6568 3.96825 21 5.625 21H17.625C19.2818 21 20.625 19.6568 20.625 18V6C20.625 4.34325 19.2818 3 17.625 3H5.625C3.96825 3 2.625 4.34325 2.625 6ZM15.75 8.12887C14.3235 8.586 13.2199 9.72525 13.0699 11.232H15.75V11.4645C15.75 15.564 12.9345 17.9025 8.25 18V15.9461C11.6884 15.8786 13.1449 14.3647 13.4453 13.1655H8.25V11.2316H11.2155C11.088 10.0474 9.7365 8.80312 8.25 8.3835V6.44963C10.0819 6.77175 11.433 8.121 11.9887 9.08063C12.4391 8.12138 13.6178 6.58463 15.75 6V8.12887Z" fill="black"/>
</svg>
