<svg width="20" height="20" viewBox="0 0 20 20" fill="none" xmlns="http://www.w3.org/2000/svg">
<g clip-path="url(#clip0_66523_32)">
<path d="M19.0586 18.9414H1.05859L1.05859 0.941406H19.0586V18.9414Z" fill="#FFA015"/>
<path d="M-0.5 18.168C-0.5 19.457 0.542969 20.5 1.83203 20.5H18.168C19.457 20.5 20.5 19.457 20.5 18.168V1.83203C20.5 0.542969 19.457 -0.5 18.168 -0.5H1.83203C0.542969 -0.5 -0.5 0.542969 -0.5 1.83203L-0.5 18.168ZM1.83203 18.168L1.83203 1.83203H18.168V18.168H1.83203ZM6.33203 10.2422C6.32812 10.9336 6.33594 11.5156 6.49609 11.8438C6.60547 12.0664 6.84766 12.2344 6.85938 12.1289C6.875 12.0039 6.9375 11.7148 7.14844 11.5625C7.41797 11.3633 8.02344 11.3711 8.02344 11.3711C8.02344 11.3711 9.6875 11.2578 9.89453 11.6367C10.0391 11.8945 9.75 12.2539 8.42188 13.0195C7.74219 13.4141 6.99219 13.707 6.99219 13.707C6.99219 13.707 6.85156 13.7656 6.77734 13.8672C6.68359 13.9922 6.65625 14.1641 6.65625 14.1641L6.66406 15.9961C6.66406 15.9961 6.66406 16.2734 6.78516 16.375C6.89062 16.4648 7.10547 16.3828 7.10547 16.3828C7.10547 16.3828 10.4531 14.9453 12.1445 13.3203C13.6992 11.8281 13.5586 10.1367 13.5586 10.1367V9.36719C13.5586 9.36719 13.5742 9.13672 13.4453 9.01953C13.3281 8.91016 13.1445 8.91406 13.1445 8.91406C13.1445 8.91406 12.1133 8.92578 11.9609 8.44922C11.8125 7.98047 12.957 7.375 13.3984 6.73438C13.7305 6.25 13.6602 5.88281 13.6602 5.88281L13.6367 4.16797C13.6367 4.16797 13.582 3.27344 12.8711 3.69531C12.8125 3.73047 12.3477 3.94141 11.3945 4.96875C10.3945 6.04297 10.5547 5.89844 8.82813 4.60547C7.77734 3.81641 7.13672 3.50391 6.85938 3.60156C6.59766 3.69531 6.66797 4.27734 6.66797 4.27734L6.67578 6.20312C6.67578 6.20312 6.65625 6.34766 6.72266 6.45312C6.78516 6.55859 6.92969 6.625 6.92969 6.625C6.92969 6.625 7.74219 6.92969 8.4375 7.33984C9.89844 8.19531 9.97656 8.53906 9.88281 8.67969C9.67187 9.00781 9.03516 8.92578 8.58203 8.92578C7.16797 8.92578 6.57422 8.71094 6.42188 9.34375C6.37109 9.55469 6.33984 9.70703 6.33203 10.2422Z" fill="black"/>
</g>
<defs>
<clipPath id="clip0_66523_32">
<rect width="20" height="20" fill="white" transform="translate(0 20) rotate(-90)"/>
</clipPath>
</defs>
</svg>
